<svg width="291" height="43" viewBox="0 0 291 43" fill="none" xmlns="http://www.w3.org/2000/svg">
<path d="M52.525 10.045H41.58V42H34.32V10.045H23.43V3.60997H52.525V10.045Z" fill="#18181B"/>
<path d="M57.9743 42V1.29997H65.0143V18.075H65.2893C65.876 16.535 66.7926 15.2516 68.0393 14.225C69.3226 13.1616 71.0826 12.63 73.3193 12.63C76.2526 12.63 78.5076 13.62 80.0843 15.6C81.6976 17.5433 82.5043 20.2933 82.5043 23.85V42H75.4643V24.565C75.4643 22.5483 75.0976 21.0266 74.3643 20C73.631 18.9366 72.421 18.405 70.7343 18.405C69.781 18.405 68.8643 18.5883 67.9843 18.955C67.1043 19.285 66.3893 19.7983 65.8393 20.495C65.2893 21.155 65.0143 21.9983 65.0143 23.025V42H57.9743Z" fill="#18181B"/>
<path d="M94.3483 42H87.3083V13.29H94.3483V19.23H94.6233C94.8799 18.2033 95.3016 17.25 95.8883 16.37C96.5116 15.4533 97.3366 14.72 98.3633 14.17C99.4266 13.5833 100.71 13.29 102.213 13.29H103.753V19.945H101.553C99.9766 19.945 98.6383 20.11 97.5383 20.44C96.4749 20.7333 95.6683 21.21 95.1183 21.87C94.6049 22.4933 94.3483 23.3366 94.3483 24.4V42Z" fill="#18181B"/>
<path d="M120.237 42.66C117.413 42.66 114.993 42.055 112.977 40.845C110.96 39.5983 109.402 37.8566 108.302 35.62C107.238 33.3466 106.707 30.67 106.707 27.59C106.707 24.5833 107.238 21.9616 108.302 19.725C109.365 17.4516 110.887 15.71 112.867 14.5C114.847 13.2533 117.23 12.63 120.017 12.63C123.023 12.63 125.48 13.29 127.387 14.61C129.33 15.93 130.76 17.69 131.677 19.89C132.63 22.0533 133.107 24.455 133.107 27.095V29.405H114.022V30.12C114.022 32.1733 114.608 33.8416 115.782 35.125C116.955 36.4083 118.697 37.05 121.007 37.05C122.73 37.05 124.16 36.6833 125.297 35.95C126.433 35.18 127.442 34.245 128.322 33.145L132.117 37.38C130.943 38.9566 129.33 40.24 127.277 41.23C125.26 42.1833 122.913 42.66 120.237 42.66ZM120.127 17.91C118.88 17.91 117.798 18.2033 116.882 18.79C115.965 19.34 115.25 20.1283 114.737 21.155C114.26 22.145 114.022 23.3 114.022 24.62V25.06H125.792V24.565C125.792 23.2083 125.572 22.0533 125.132 21.1C124.692 20.11 124.05 19.34 123.207 18.79C122.363 18.2033 121.337 17.91 120.127 17.91Z" fill="#18181B"/>
<path d="M164.325 42H160.42C159.357 42 158.404 41.7616 157.56 41.285C156.754 40.7716 156.112 40.0383 155.635 39.085C155.195 38.1316 154.975 37.0133 154.975 35.73V35.125L156.735 37.05H154.755C154.279 38.8833 153.289 40.2766 151.785 41.23C150.319 42.1833 148.522 42.66 146.395 42.66C143.462 42.66 141.207 41.89 139.63 40.35C138.054 38.7733 137.265 36.72 137.265 34.19C137.265 32.21 137.742 30.5783 138.695 29.295C139.685 28.0116 141.097 27.04 142.93 26.38C144.764 25.72 146.964 25.39 149.53 25.39H154.425V23.3C154.425 21.7233 154.004 20.495 153.16 19.615C152.317 18.6983 150.96 18.24 149.09 18.24C147.44 18.24 146.102 18.6066 145.075 19.34C144.085 20.0366 143.242 20.88 142.545 21.87L138.365 18.13C139.429 16.48 140.84 15.16 142.6 14.17C144.36 13.1433 146.689 12.63 149.585 12.63C153.435 12.63 156.369 13.5283 158.385 15.325C160.439 17.085 161.465 19.5966 161.465 22.86V36.39H164.325V42ZM154.425 29.625H149.915C148.082 29.625 146.707 29.9366 145.79 30.56C144.874 31.1466 144.415 32.0083 144.415 33.145V34.08C144.415 35.2166 144.8 36.0783 145.57 36.665C146.34 37.2516 147.404 37.545 148.76 37.545C149.824 37.545 150.777 37.3983 151.62 37.105C152.464 36.775 153.142 36.2983 153.655 35.675C154.169 35.0516 154.425 34.3 154.425 33.42V29.625Z" fill="#18181B"/>
<path d="M187.843 42V37.215H187.568C187.055 38.865 186.083 40.185 184.653 41.175C183.223 42.165 181.555 42.66 179.648 42.66C177.265 42.66 175.23 42.0733 173.543 40.9C171.893 39.7266 170.628 38.0216 169.748 35.785C168.868 33.5116 168.428 30.78 168.428 27.59C168.428 24.4 168.868 21.705 169.748 19.505C170.628 17.2683 171.893 15.5633 173.543 14.39C175.23 13.2166 177.265 12.63 179.648 12.63C181.555 12.63 183.223 13.125 184.653 14.115C186.12 15.0683 187.091 16.37 187.568 18.02H187.843V1.29997H194.883V42H187.843ZM181.903 36.83C183.04 36.83 184.048 36.6466 184.928 36.28C185.845 35.9133 186.56 35.3816 187.073 34.685C187.586 33.9883 187.843 33.145 187.843 32.155V23.025C187.843 22.1083 187.586 21.3016 187.073 20.605C186.56 19.9083 185.845 19.3766 184.928 19.01C184.048 18.6066 183.04 18.405 181.903 18.405C180.106 18.405 178.64 19.0283 177.503 20.275C176.366 21.485 175.798 23.1166 175.798 25.17V30.12C175.798 32.1366 176.366 33.7683 177.503 35.015C178.64 36.225 180.106 36.83 181.903 36.83Z" fill="#18181B"/>
<path d="M211.837 42H208.042C205.658 42 203.88 41.395 202.707 40.185C201.57 38.975 201.002 37.27 201.002 35.07V1.29997H208.042V36.39H211.837V42Z" fill="#18181B"/>
<path d="M220.689 9.10997C219.259 9.10997 218.214 8.77997 217.554 8.11997C216.894 7.4233 216.564 6.57997 216.564 5.58997V4.48997C216.564 3.4633 216.894 2.61997 217.554 1.95997C218.214 1.29997 219.259 0.969971 220.689 0.969971C222.119 0.969971 223.164 1.29997 223.824 1.95997C224.484 2.61997 224.814 3.4633 224.814 4.48997V5.58997C224.814 6.57997 224.484 7.4233 223.824 8.11997C223.164 8.77997 222.119 9.10997 220.689 9.10997ZM217.169 42V13.29H224.209V42H217.169Z" fill="#18181B"/>
<path d="M239.355 42H232.315V13.29H239.355V18.075H239.63C240.217 16.535 241.133 15.2516 242.38 14.225C243.663 13.1616 245.423 12.63 247.66 12.63C250.593 12.63 252.848 13.62 254.425 15.6C256.038 17.5433 256.845 20.2933 256.845 23.85V42H249.805V24.565C249.805 22.5483 249.438 21.0266 248.705 20C247.972 18.9366 246.762 18.405 245.075 18.405C244.122 18.405 243.205 18.5883 242.325 18.955C241.445 19.285 240.73 19.7983 240.18 20.495C239.63 21.155 239.355 21.9983 239.355 23.025V42Z" fill="#18181B"/>
<path d="M276.254 42.66C273.431 42.66 271.011 42.055 268.994 40.845C266.977 39.5983 265.419 37.8566 264.319 35.62C263.256 33.3466 262.724 30.67 262.724 27.59C262.724 24.5833 263.256 21.9616 264.319 19.725C265.382 17.4516 266.904 15.71 268.884 14.5C270.864 13.2533 273.247 12.63 276.034 12.63C279.041 12.63 281.497 13.29 283.404 14.61C285.347 15.93 286.777 17.69 287.694 19.89C288.647 22.0533 289.124 24.455 289.124 27.095V29.405H270.039V30.12C270.039 32.1733 270.626 33.8416 271.799 35.125C272.972 36.4083 274.714 37.05 277.024 37.05C278.747 37.05 280.177 36.6833 281.314 35.95C282.451 35.18 283.459 34.245 284.339 33.145L288.134 37.38C286.961 38.9566 285.347 40.24 283.294 41.23C281.277 42.1833 278.931 42.66 276.254 42.66ZM276.144 17.91C274.897 17.91 273.816 18.2033 272.899 18.79C271.982 19.34 271.267 20.1283 270.754 21.155C270.277 22.145 270.039 23.3 270.039 24.62V25.06H281.809V24.565C281.809 23.2083 281.589 22.0533 281.149 21.1C280.709 20.11 280.067 19.34 279.224 18.79C278.381 18.2033 277.354 17.91 276.144 17.91Z" fill="#18181B"/>
<path d="M1.77209 42.5L15.652 1H22.362L8.4821 42.5H1.77209Z" fill="#18181B"/>
</svg>
